<?xml version="1.0" encoding="utf-8"?>
<!-- Generator: Adobe Illustrator 22.0.1, SVG Export Plug-In . SVG Version: 6.00 Build 0)  -->
<svg version="1.1" id="Livello_1" xmlns="http://www.w3.org/2000/svg" xmlns:xlink="http://www.w3.org/1999/xlink" x="0px" y="0px"
	 viewBox="0 0 966.5 125.6" style="enable-background:new 0 0 966.5 125.6;" xml:space="preserve">
<g>
	<path d="M75.9,31.3h-0.3C69.9,12.4,60.9,3,48.4,3H31.8v79.9c0,3.8,0.9,7.2,2.8,10.2c1.9,3,4.4,5.3,7.6,6.8v0.3H-1v-0.3
		c3.3-1.5,5.9-3.8,7.8-6.8c1.9-3,2.8-6.4,2.8-10.2V18.3c0-3.8-0.9-7.2-2.8-10.2C4.9,5.1,2.3,2.8-1,1.3V1h74.8L75.9,31.3z"/>
	<path d="M141,76.5l0.3,0.1c-2.1,6.6-5.6,12.4-10.5,17.3c-4.9,5-10.8,7.4-17.7,7.4c-8.1,0-15.3-3.2-21.5-9.5s-9.3-15.3-9.3-27
		c0-5.9,1-11.3,3-16.1c2-4.8,4.6-8.7,7.7-11.6c3.2-2.9,6.6-5.2,10.4-6.7c3.8-1.6,7.6-2.3,11.5-2.3c7.5,0,13.8,2.8,19,8.3
		s8.1,13,8.6,22.4h-42.2c0.3,9.1,2.6,15.8,7,20.2c4.4,4.4,9.4,6.6,14.9,6.6C128.5,85.5,134.8,82.5,141,76.5z M103.9,36.7
		c-2.5,4.6-3.7,11.3-3.7,20.1h23.6c-0.3-8-1.5-14.5-3.8-19.5c-2.2-5-5-7.5-8.3-7.5C109,29.8,106.4,32.1,103.9,36.7z"/>
	<path d="M211.5,93.5c0.8,2.5,2.9,4.7,6.2,6.4v0.3h-32.9c-10.7,0-19.2-2.8-25.6-8.4c-6.4-5.6-9.6-13.9-9.6-24.9c0-6.3,1.1-12,3.3-17
		c2.2-5,5.2-8.9,8.9-11.8c3.7-2.9,7.6-5.1,11.9-6.5c4.2-1.5,8.6-2.2,13.2-2.2h3.3v-11c0-4.5-0.4-8.1-1.3-10.6
		c-0.8-2.5-2.9-4.7-6.2-6.4V1.1h27.6v81.8C210.2,87.4,210.7,90.9,211.5,93.5z M190.1,98.1V31.3h-4c-5.1,0-9,1.7-11.8,5.1
		s-4.1,10.1-4.1,20.1c0,11.6,1.9,21.5,5.7,29.5c3.8,8.1,8.4,12.1,13.8,12.1H190.1z"/>
	<path d="M282.6,76.5l0.3,0.1c-2.1,6.6-5.6,12.4-10.5,17.3c-4.9,5-10.8,7.4-17.7,7.4c-8.1,0-15.3-3.2-21.5-9.5s-9.3-15.3-9.3-27
		c0-5.9,1-11.3,3-16.1c2-4.8,4.6-8.7,7.7-11.6c3.2-2.9,6.6-5.2,10.4-6.7c3.8-1.6,7.6-2.3,11.5-2.3c7.5,0,13.8,2.8,19,8.3
		s8.1,13,8.6,22.4h-42.3c0.3,9.1,2.6,15.8,7,20.2s9.4,6.6,14.9,6.6C270.1,85.5,276.4,82.5,282.6,76.5z M245.5,36.7
		c-2.5,4.6-3.7,11.3-3.7,20.1h23.6c-0.3-8-1.5-14.5-3.8-19.5c-2.2-5-5-7.5-8.3-7.5C250.6,29.8,247.9,32.1,245.5,36.7z"/>
	<path d="M326.8,56.7c0.4-7.2-0.3-13.2-2-18.2s-4.2-7.4-7.5-7.4H317v51.8c0,4.5,0.4,8.1,1.3,10.6c0.8,2.5,2.9,4.7,6.2,6.4v0.3h-35.1
		v-0.3c3.3-1.7,5.4-3.8,6.2-6.4s1.3-6.1,1.3-10.6V46.7c0-4.5-0.4-8.1-1.3-10.6c-0.8-2.5-2.9-4.7-6.2-6.4v-0.3h32.9
		c5.9,0,10.8,1.3,14.5,3.9s6.1,7.3,7,14.1L326.8,56.7z"/>
	<path d="M345.9,99.8c3.3-1.7,5.4-3.8,6.2-6.4c0.8-2.5,1.3-6.1,1.3-10.6V46.6c0-4.5-0.4-8.1-1.3-10.6c-0.8-2.5-2.9-4.7-6.2-6.4v-0.3
		h27.6v53.5c0,4.5,0.4,8.1,1.3,10.6c0.8,2.5,2.9,4.7,6.2,6.4v0.3h-35.1V99.8z M354.9,18.5c-2.2-2.1-3.3-4.7-3.3-7.7
		c0-2.9,1.1-5.5,3.3-7.6c2.2-2.1,4.9-3.2,8-3.2s5.8,1.1,8,3.2c2.2,2.1,3.3,4.6,3.3,7.6s-1.1,5.6-3.3,7.7s-4.9,3.2-8,3.2
		C359.7,21.7,357.1,20.6,354.9,18.5z M42.7,56.1c-2.2-2.1-3.3-4.7-3.3-7.7c0-2.9,1.1-5.5,3.3-7.6s4.9-3.2,8-3.2s5.8,1.1,8,3.2
		s3.3,4.6,3.3,7.6s-1.1,5.6-3.3,7.7s-4.9,3.2-8,3.2C47.6,59.3,45,58.2,42.7,56.1z"/>
	<path d="M396.5,91.7c-6.3-6.3-9.4-15.1-9.4-26.6c0-11.4,3.4-20.4,10.3-27c6.8-6.6,14.5-9.9,22.9-9.9c5.1,0,9.8,1.4,14.2,4.2
		c4.4,2.8,7.8,6.9,10.3,12.3l-22.5,11.2l-0.3-0.1c1.8-5.1,2.2-10.6,1.3-16.6c-0.9-5.9-3-8.9-6.4-8.9c-2.7,0-5.1,2.2-7,6.7
		c-1.9,4.4-2.9,11-2.9,19.5c0,9.7,2,16.9,6,21.7c4,4.7,8.7,7.1,14.1,7.1c7.3,0,13.5-2.9,18.8-8.8l0.3,0.1
		c-1.9,5.9-5.5,11.4-10.8,16.6c-5.3,5.2-11,7.9-17.3,7.9C410,101.1,402.8,98,396.5,91.7z"/>
	<path d="M474.5,99.4c-3.9-1.5-7.6-3.7-11.1-6.5s-6.3-6.7-8.6-11.5c-2.2-4.9-3.3-10.3-3.3-16.4c0-11.4,3.5-20.4,10.5-27
		s14.9-9.9,23.8-9.9c3.8,0,7.6,0.8,11.6,2.3s7.7,3.7,11.2,6.5s6.3,6.7,8.6,11.5c2.2,4.9,3.3,10.3,3.3,16.4c0,11.4-3.5,20.4-10.5,27
		s-15,9.9-23.9,9.9C482.3,101.7,478.4,100.9,474.5,99.4z M496.5,92.9c2-4.7,3-11.4,3-20c0-11.8-1.8-21.9-5.3-30.4s-7.5-12.7-12-12.7
		c-2.5,0-4.8,2.4-6.8,7.1s-3,11.4-3,20c0,11.8,1.8,21.9,5.4,30.4s7.6,12.7,11.9,12.7C492.3,100,494.5,97.6,496.5,92.9z"/>
	<path d="M634.4,63.7l-4.2,36.4h-78.9v-0.4L608.2,3h-19.7c-6.4,0-11.9,2.6-16.6,7.7c-4.6,5.1-9,12.4-13,21.7h-0.3L561.4,1h72.4v0.3
		L577,98.2h26.5c3.9,0,7.2-0.6,9.9-1.9c2.7-1.3,5.3-3.5,7.6-6.7c2.4-3.2,4.3-6.5,5.9-9.8c1.6-3.4,3.8-8.2,6.5-14.5
		c0.3-0.7,0.5-1.1,0.6-1.4h0.4V63.7z"/>
	<path d="M664.6,99.4c-3.9-1.5-7.6-3.7-11.1-6.5s-6.3-6.7-8.6-11.5c-2.2-4.9-3.3-10.3-3.3-16.4c0-11.4,3.5-20.4,10.5-27
		s14.9-9.9,23.8-9.9c3.8,0,7.6,0.8,11.6,2.3s7.7,3.7,11.2,6.5s6.3,6.7,8.6,11.5c2.2,4.9,3.3,10.3,3.3,16.4c0,11.4-3.5,20.4-10.5,27
		s-15,9.9-23.9,9.9C672.4,101.7,668.6,100.9,664.6,99.4z M686.7,92.9c2-4.7,3-11.4,3-20c0-11.8-1.8-21.9-5.3-30.4s-7.5-12.7-12-12.7
		c-2.5,0-4.8,2.4-6.8,7.1s-3,11.4-3,20c0,11.8,1.8,21.9,5.4,30.4s7.6,12.7,11.9,12.7C682.4,100,684.7,97.6,686.7,92.9z"/>
	<path d="M744.3,100.1v8.2c0,4.5,0.4,8.1,1.3,10.6c0.8,2.5,2.9,4.7,6.2,6.4v0.3h-35.1v-0.3c3.3-1.7,5.4-3.8,6.2-6.4
		c0.8-2.5,1.3-6.1,1.3-10.6V46.6c0-4.5-0.4-8.1-1.3-10.6c-0.8-2.5-2.9-4.7-6.2-6.4v-0.3h32.9c10.7,0,19.2,2.8,25.6,8.4
		c6.4,5.6,9.6,13.9,9.6,24.9c0,6.3-1.1,12-3.3,17s-5.2,8.9-8.9,11.8c-3.7,2.9-7.6,5-11.9,6.5c-4.2,1.5-8.6,2.2-13.2,2.2H744.3z
		 M744.3,31.3v66.8h4c5.1,0,9-1.7,11.8-5.1c2.7-3.4,4.1-10.1,4.1-20.1c0-11.5-1.9-21.3-5.7-29.5c-3.8-8.1-8.4-12.2-13.8-12.2
		L744.3,31.3L744.3,31.3z"/>
	<path d="M818.5,100.1v8.2c0,4.5,0.4,8.1,1.3,10.6c0.8,2.5,2.9,4.7,6.2,6.4v0.3h-35.1v-0.3c3.3-1.7,5.4-3.8,6.2-6.4
		c0.8-2.5,1.3-6.1,1.3-10.6V46.6c0-4.5-0.4-8.1-1.3-10.6c-0.8-2.5-2.9-4.7-6.2-6.4v-0.3h32.9c10.7,0,19.2,2.8,25.6,8.4
		c6.4,5.6,9.6,13.9,9.6,24.9c0,6.3-1.1,12-3.3,17s-5.2,8.9-8.9,11.8c-3.7,2.9-7.6,5-11.9,6.5c-4.2,1.5-8.6,2.2-13.2,2.2H818.5z
		 M818.5,31.3v66.8h4c5.1,0,9-1.7,11.8-5.1c2.7-3.4,4.1-10.1,4.1-20.1c0-11.5-1.9-21.3-5.7-29.5c-3.8-8.1-8.4-12.2-13.8-12.2
		L818.5,31.3L818.5,31.3z"/>
	<path d="M925.7,76.5l0.3,0.1c-2.1,6.6-5.6,12.4-10.5,17.3c-4.9,5-10.8,7.4-17.7,7.4c-8.1,0-15.3-3.2-21.5-9.5
		c-6.2-6.3-9.3-15.3-9.3-27c0-5.9,1-11.3,3-16.1c2-4.8,4.6-8.7,7.7-11.6c3.2-2.9,6.6-5.2,10.4-6.7c3.8-1.6,7.6-2.3,11.5-2.3
		c7.5,0,13.8,2.8,19,8.3s8.1,13,8.6,22.4H885c0.3,9.1,2.6,15.8,7,20.2s9.4,6.6,14.9,6.6C913.2,85.5,919.4,82.5,925.7,76.5z
		 M888.6,36.7c-2.5,4.6-3.7,11.3-3.7,20.1h23.6c-0.3-8-1.5-14.5-3.8-19.5c-2.2-5-5-7.5-8.3-7.5C893.7,29.8,891,32.1,888.6,36.7z"/>
	<path d="M932.4,99.8c3.3-1.7,5.4-3.8,6.2-6.4c0.8-2.5,1.3-6.1,1.3-10.6V46.6c0-4.5-0.4-8.1-1.3-10.6c-0.8-2.5-2.9-4.7-6.2-6.4v-0.3
		H960v53.5c0,4.5,0.4,8.1,1.3,10.6c0.8,2.5,2.9,4.7,6.2,6.4v0.3h-35.1V99.8z M941.4,18.5c-2.2-2.1-3.3-4.7-3.3-7.7
		c0-2.9,1.1-5.5,3.3-7.6c2.2-2.1,4.9-3.2,8-3.2s5.8,1.1,8,3.2s3.3,4.6,3.3,7.6s-1.1,5.6-3.3,7.7s-4.9,3.2-8,3.2
		S943.7,20.6,941.4,18.5z"/>
</g>
</svg>